<mxfile host="app.diagrams.net" modified="2023-05-15T07:25:45.867Z" agent="Mozilla/5.0 (Windows NT 10.0; Win64; x64) AppleWebKit/537.36 (KHTML, like Gecko) Chrome/113.0.0.0 Safari/537.36" etag="UOrD-y3tRgtyMaRx8SjI" version="21.2.9" type="github">
  <diagram name="第 1 页" id="EIDiARR_dXdDSFOwPV3g">
    <mxGraphModel dx="1195" dy="663" grid="1" gridSize="10" guides="1" tooltips="1" connect="1" arrows="1" fold="1" page="1" pageScale="1" pageWidth="827" pageHeight="1169" math="0" shadow="0">
      <root>
        <mxCell id="0" />
        <mxCell id="1" parent="0" />
        <mxCell id="vyqBwXJfIFNPgKrzf0KV-5" value="" style="rounded=1;whiteSpace=wrap;html=1;" vertex="1" parent="1">
          <mxGeometry x="100" y="170" width="760" height="240" as="geometry" />
        </mxCell>
        <mxCell id="vyqBwXJfIFNPgKrzf0KV-7" value="" style="rounded=1;whiteSpace=wrap;html=1;" vertex="1" parent="1">
          <mxGeometry x="120" y="195" width="270" height="190" as="geometry" />
        </mxCell>
        <mxCell id="vyqBwXJfIFNPgKrzf0KV-10" value="etcd" style="shape=cylinder3;whiteSpace=wrap;html=1;boundedLbl=1;backgroundOutline=1;size=15;" vertex="1" parent="1">
          <mxGeometry x="310" y="305" width="70" height="50" as="geometry" />
        </mxCell>
        <mxCell id="vyqBwXJfIFNPgKrzf0KV-12" value="apiserver" style="rounded=0;whiteSpace=wrap;html=1;" vertex="1" parent="1">
          <mxGeometry x="220" y="220" width="80" height="40" as="geometry" />
        </mxCell>
        <mxCell id="vyqBwXJfIFNPgKrzf0KV-14" value="scheduler" style="rounded=0;whiteSpace=wrap;html=1;" vertex="1" parent="1">
          <mxGeometry x="130" y="310" width="80" height="40" as="geometry" />
        </mxCell>
        <mxCell id="vyqBwXJfIFNPgKrzf0KV-15" value="controler" style="rounded=0;whiteSpace=wrap;html=1;" vertex="1" parent="1">
          <mxGeometry x="220" y="310" width="80" height="40" as="geometry" />
        </mxCell>
        <mxCell id="vyqBwXJfIFNPgKrzf0KV-16" value="k8s Master" style="text;html=1;strokeColor=none;fillColor=none;align=center;verticalAlign=middle;whiteSpace=wrap;rounded=0;" vertex="1" parent="1">
          <mxGeometry x="120" y="200" width="70" height="30" as="geometry" />
        </mxCell>
        <mxCell id="vyqBwXJfIFNPgKrzf0KV-17" value="" style="rounded=1;whiteSpace=wrap;html=1;" vertex="1" parent="1">
          <mxGeometry x="445" y="195" width="365" height="190" as="geometry" />
        </mxCell>
        <mxCell id="vyqBwXJfIFNPgKrzf0KV-22" value="k8s Node" style="text;html=1;strokeColor=none;fillColor=none;align=center;verticalAlign=middle;whiteSpace=wrap;rounded=0;" vertex="1" parent="1">
          <mxGeometry x="460" y="190" width="60" height="30" as="geometry" />
        </mxCell>
        <mxCell id="vyqBwXJfIFNPgKrzf0KV-23" value="" style="endArrow=classic;html=1;rounded=0;entryX=0.5;entryY=1;entryDx=0;entryDy=0;exitX=0.5;exitY=0;exitDx=0;exitDy=0;" edge="1" parent="1" source="vyqBwXJfIFNPgKrzf0KV-14" target="vyqBwXJfIFNPgKrzf0KV-12">
          <mxGeometry width="50" height="50" relative="1" as="geometry">
            <mxPoint x="-90" y="380" as="sourcePoint" />
            <mxPoint x="-40" y="330" as="targetPoint" />
          </mxGeometry>
        </mxCell>
        <mxCell id="vyqBwXJfIFNPgKrzf0KV-24" value="" style="endArrow=classic;html=1;rounded=0;entryX=0.5;entryY=1;entryDx=0;entryDy=0;exitX=0.5;exitY=0;exitDx=0;exitDy=0;" edge="1" parent="1" source="vyqBwXJfIFNPgKrzf0KV-15" target="vyqBwXJfIFNPgKrzf0KV-12">
          <mxGeometry width="50" height="50" relative="1" as="geometry">
            <mxPoint x="320" y="510" as="sourcePoint" />
            <mxPoint x="370" y="460" as="targetPoint" />
          </mxGeometry>
        </mxCell>
        <mxCell id="vyqBwXJfIFNPgKrzf0KV-25" value="" style="endArrow=classic;html=1;rounded=0;exitX=0.5;exitY=1;exitDx=0;exitDy=0;entryX=0.5;entryY=0;entryDx=0;entryDy=0;entryPerimeter=0;" edge="1" parent="1" source="vyqBwXJfIFNPgKrzf0KV-12" target="vyqBwXJfIFNPgKrzf0KV-10">
          <mxGeometry width="50" height="50" relative="1" as="geometry">
            <mxPoint x="370" y="180" as="sourcePoint" />
            <mxPoint x="420" y="130" as="targetPoint" />
          </mxGeometry>
        </mxCell>
        <mxCell id="vyqBwXJfIFNPgKrzf0KV-26" value="ccseone-agent" style="rounded=0;whiteSpace=wrap;html=1;" vertex="1" parent="1">
          <mxGeometry x="200" y="510" width="120" height="50" as="geometry" />
        </mxCell>
        <mxCell id="vyqBwXJfIFNPgKrzf0KV-27" value="kubelet" style="rounded=0;whiteSpace=wrap;html=1;" vertex="1" parent="1">
          <mxGeometry x="460" y="220" width="80" height="40" as="geometry" />
        </mxCell>
        <mxCell id="vyqBwXJfIFNPgKrzf0KV-28" value="kube-proxy" style="rounded=0;whiteSpace=wrap;html=1;" vertex="1" parent="1">
          <mxGeometry x="685" y="220" width="80" height="40" as="geometry" />
        </mxCell>
        <mxCell id="vyqBwXJfIFNPgKrzf0KV-29" value="" style="rounded=0;whiteSpace=wrap;html=1;" vertex="1" parent="1">
          <mxGeometry x="460" y="290" width="90" height="80" as="geometry" />
        </mxCell>
        <mxCell id="vyqBwXJfIFNPgKrzf0KV-2" value="ccseone-controler" style="rounded=0;whiteSpace=wrap;html=1;fillColor=#b1ddf0;strokeColor=#10739e;" vertex="1" parent="1">
          <mxGeometry x="465" y="305" width="75" height="40" as="geometry" />
        </mxCell>
        <mxCell id="vyqBwXJfIFNPgKrzf0KV-30" value="Pod" style="text;html=1;strokeColor=none;fillColor=none;align=center;verticalAlign=middle;whiteSpace=wrap;rounded=0;" vertex="1" parent="1">
          <mxGeometry x="465" y="350" width="65" height="15" as="geometry" />
        </mxCell>
        <mxCell id="vyqBwXJfIFNPgKrzf0KV-31" value="" style="rounded=0;whiteSpace=wrap;html=1;" vertex="1" parent="1">
          <mxGeometry x="570" y="290" width="90" height="80" as="geometry" />
        </mxCell>
        <mxCell id="vyqBwXJfIFNPgKrzf0KV-32" value="ccseone-apiserver" style="rounded=0;whiteSpace=wrap;html=1;fillColor=#b1ddf0;strokeColor=#10739e;" vertex="1" parent="1">
          <mxGeometry x="575" y="305" width="75" height="40" as="geometry" />
        </mxCell>
        <mxCell id="vyqBwXJfIFNPgKrzf0KV-33" value="Pod" style="text;html=1;strokeColor=none;fillColor=none;align=center;verticalAlign=middle;whiteSpace=wrap;rounded=0;" vertex="1" parent="1">
          <mxGeometry x="575" y="350" width="65" height="15" as="geometry" />
        </mxCell>
        <mxCell id="vyqBwXJfIFNPgKrzf0KV-34" value="" style="rounded=0;whiteSpace=wrap;html=1;" vertex="1" parent="1">
          <mxGeometry x="680" y="290" width="90" height="80" as="geometry" />
        </mxCell>
        <mxCell id="vyqBwXJfIFNPgKrzf0KV-35" value="ccseone-frontend" style="rounded=0;whiteSpace=wrap;html=1;fillColor=#b1ddf0;strokeColor=#10739e;" vertex="1" parent="1">
          <mxGeometry x="685" y="305" width="75" height="40" as="geometry" />
        </mxCell>
        <mxCell id="vyqBwXJfIFNPgKrzf0KV-36" value="Pod" style="text;html=1;strokeColor=none;fillColor=none;align=center;verticalAlign=middle;whiteSpace=wrap;rounded=0;" vertex="1" parent="1">
          <mxGeometry x="685" y="350" width="65" height="15" as="geometry" />
        </mxCell>
        <mxCell id="vyqBwXJfIFNPgKrzf0KV-37" value="" style="endArrow=classic;html=1;rounded=0;entryX=1;entryY=0.5;entryDx=0;entryDy=0;strokeColor=#006EAF;" edge="1" parent="1" source="vyqBwXJfIFNPgKrzf0KV-35" target="vyqBwXJfIFNPgKrzf0KV-32">
          <mxGeometry width="50" height="50" relative="1" as="geometry">
            <mxPoint x="670" y="500" as="sourcePoint" />
            <mxPoint x="720" y="450" as="targetPoint" />
          </mxGeometry>
        </mxCell>
        <mxCell id="vyqBwXJfIFNPgKrzf0KV-38" value="" style="endArrow=classic;html=1;rounded=0;exitX=1;exitY=0.5;exitDx=0;exitDy=0;entryX=0;entryY=0.5;entryDx=0;entryDy=0;" edge="1" parent="1" source="vyqBwXJfIFNPgKrzf0KV-12" target="vyqBwXJfIFNPgKrzf0KV-27">
          <mxGeometry width="50" height="50" relative="1" as="geometry">
            <mxPoint x="470" y="470" as="sourcePoint" />
            <mxPoint x="520" y="420" as="targetPoint" />
          </mxGeometry>
        </mxCell>
        <mxCell id="vyqBwXJfIFNPgKrzf0KV-39" value="" style="endArrow=classic;html=1;rounded=0;exitX=0.5;exitY=1;exitDx=0;exitDy=0;strokeColor=#006EAF;" edge="1" parent="1" source="vyqBwXJfIFNPgKrzf0KV-28" target="vyqBwXJfIFNPgKrzf0KV-34">
          <mxGeometry width="50" height="50" relative="1" as="geometry">
            <mxPoint x="890" y="440" as="sourcePoint" />
            <mxPoint x="940" y="390" as="targetPoint" />
          </mxGeometry>
        </mxCell>
        <mxCell id="vyqBwXJfIFNPgKrzf0KV-40" value="桌面云网关" style="rounded=0;whiteSpace=wrap;html=1;" vertex="1" parent="1">
          <mxGeometry x="680" y="100" width="90" height="40" as="geometry" />
        </mxCell>
        <mxCell id="vyqBwXJfIFNPgKrzf0KV-42" value="" style="endArrow=classic;html=1;rounded=0;exitX=0.5;exitY=1;exitDx=0;exitDy=0;" edge="1" parent="1" source="vyqBwXJfIFNPgKrzf0KV-40" target="vyqBwXJfIFNPgKrzf0KV-28">
          <mxGeometry width="50" height="50" relative="1" as="geometry">
            <mxPoint x="850" y="150" as="sourcePoint" />
            <mxPoint x="900" y="100" as="targetPoint" />
          </mxGeometry>
        </mxCell>
        <mxCell id="vyqBwXJfIFNPgKrzf0KV-43" value="浏览器" style="rounded=0;whiteSpace=wrap;html=1;" vertex="1" parent="1">
          <mxGeometry x="680" y="20" width="90" height="40" as="geometry" />
        </mxCell>
        <mxCell id="vyqBwXJfIFNPgKrzf0KV-44" value="" style="endArrow=classic;html=1;rounded=0;exitX=0.5;exitY=1;exitDx=0;exitDy=0;" edge="1" parent="1" source="vyqBwXJfIFNPgKrzf0KV-43" target="vyqBwXJfIFNPgKrzf0KV-40">
          <mxGeometry width="50" height="50" relative="1" as="geometry">
            <mxPoint x="860" y="120" as="sourcePoint" />
            <mxPoint x="910" y="70" as="targetPoint" />
          </mxGeometry>
        </mxCell>
        <mxCell id="vyqBwXJfIFNPgKrzf0KV-46" value="" style="endArrow=classic;html=1;rounded=0;entryX=0.75;entryY=1;entryDx=0;entryDy=0;exitX=0;exitY=0.5;exitDx=0;exitDy=0;strokeColor=#b85450;fillColor=#f8cecc;gradientColor=#ea6b66;" edge="1" parent="1" source="vyqBwXJfIFNPgKrzf0KV-2" target="vyqBwXJfIFNPgKrzf0KV-12">
          <mxGeometry width="50" height="50" relative="1" as="geometry">
            <mxPoint x="500" y="520" as="sourcePoint" />
            <mxPoint x="550" y="470" as="targetPoint" />
          </mxGeometry>
        </mxCell>
        <mxCell id="vyqBwXJfIFNPgKrzf0KV-47" value="" style="endArrow=classic;html=1;rounded=0;entryX=1;entryY=0.75;entryDx=0;entryDy=0;exitX=0.5;exitY=0;exitDx=0;exitDy=0;strokeColor=#006EAF;edgeStyle=orthogonalEdgeStyle;" edge="1" parent="1" source="vyqBwXJfIFNPgKrzf0KV-32" target="vyqBwXJfIFNPgKrzf0KV-12">
          <mxGeometry width="50" height="50" relative="1" as="geometry">
            <mxPoint x="500" y="500" as="sourcePoint" />
            <mxPoint x="550" y="450" as="targetPoint" />
            <Array as="points">
              <mxPoint x="613" y="270" />
              <mxPoint x="340" y="270" />
              <mxPoint x="340" y="250" />
            </Array>
          </mxGeometry>
        </mxCell>
      </root>
    </mxGraphModel>
  </diagram>
</mxfile>
